<svg width="210" height="210" viewBox="0 0 210 210" fill="none" xmlns="http://www.w3.org/2000/svg">
<path d="M69.7874 184.485C68.7956 184.863 67.9741 185.176 67.3436 185.416C67.0994 185.27 66.8255 185.098 66.5296 184.9C65.2688 184.057 63.667 182.774 62.2516 181.009C59.7322 177.866 57.5871 172.967 59.5567 165.53L75.4517 160.848L104.05 171.178C95.1592 174.695 86.827 177.934 80.2273 180.479C75.8843 182.155 72.2927 183.529 69.7874 184.485Z" stroke="#FFB46F" stroke-width="7" stroke-linejoin="round"/>
<path d="M158.683 141.126C158.593 141.211 158.479 141.312 158.336 141.431C157.551 142.084 156.294 142.934 154.541 143.965C151.299 145.871 146.751 148.168 141.331 150.704C134.876 148.785 127.271 146.58 119.331 144.323L150.822 135.178C151.033 135.241 151.278 135.319 151.549 135.41C152.541 135.747 153.813 136.252 155.03 136.94C157.391 138.275 158.55 139.672 158.683 141.126ZM158.962 140.836C158.961 140.837 158.96 140.838 158.959 140.84C158.983 140.803 158.989 140.801 158.962 140.836Z" stroke="#FFB46F" stroke-width="7"/>
<path d="M104.424 129.358C104.375 129.355 104.327 129.354 104.278 129.354C104.277 129.354 104.275 129.354 104.274 129.354H104.271L104.241 129.354C104.205 129.353 104.144 129.352 104.058 129.349C103.888 129.344 103.622 129.333 103.273 129.311C102.575 129.266 101.55 129.174 100.297 128.988C97.78 128.614 94.4085 127.87 90.938 126.4C84.0753 123.493 76.9401 117.844 74.9482 106.4C73.0727 95.6244 74.9647 83.3709 77.4532 73.5924C77.8327 72.1013 78.2238 70.6762 78.6139 69.3322C80.1793 73.406 82.8811 77.6945 87.6265 79.7192C88.8149 80.2263 90.1861 80.0374 91.193 79.2278C92.1991 78.419 92.6782 77.1221 92.4399 75.8537L92.4396 75.8525C92.4395 75.8517 92.4394 75.8509 92.4392 75.8501L92.4378 75.8422L92.4256 75.7739C92.4142 75.7087 92.3964 75.6044 92.3738 75.4631C92.3285 75.1804 92.2639 74.7501 92.1919 74.1886C92.0478 73.0648 91.8749 71.4203 91.7687 69.3865C91.5558 65.3085 91.614 59.7222 92.6814 53.6589C94.3529 44.164 98.4444 33.6991 107.709 25.8629C107.067 27.9473 106.469 30.2485 106.024 32.6719C104.287 42.1175 104.695 54.6227 115.482 62.4754C116.94 63.5372 118.967 63.3165 120.162 61.9658L117.542 59.6458C120.162 61.9658 120.163 61.9648 120.164 61.9637L120.166 61.9615L120.171 61.9564L120.182 61.9436L120.213 61.9082C120.237 61.8801 120.268 61.8433 120.307 61.7979C120.383 61.7072 120.486 61.582 120.612 61.4243C120.863 61.1092 121.204 60.6622 121.598 60.0982C122.381 58.9749 123.388 57.3615 124.296 55.3802C124.787 54.3098 125.258 53.1091 125.649 51.8031C128.06 55.9605 130.818 61.2968 133.176 67.3533C138.834 81.8842 141.93 99.8498 133.478 115.729L133.388 115.876C133.322 115.983 133.229 116.134 133.103 116.324C132.853 116.707 132.467 117.264 131.937 117.935C130.875 119.28 129.238 121.075 126.944 122.842C122.403 126.342 115.179 129.828 104.424 129.358Z" stroke="#FFB46F" stroke-width="7" stroke-linejoin="round"/>
<path d="M158.776 169.326C158.801 171.998 157.977 175.738 154.053 179.729L64.9421 147.401C64.9398 147.396 64.9376 147.391 64.9353 147.386C64.5954 146.622 64.1793 145.575 63.8548 144.416C63.3231 142.517 63.2024 140.916 63.4687 139.756C64.0316 139.772 64.7808 139.832 65.7333 139.95C68.4987 140.295 72.3934 141.057 77.1126 142.144C86.5191 144.309 98.8137 147.669 111.067 151.202C123.307 154.73 135.453 158.415 144.542 161.218C149.086 162.62 152.863 163.8 155.504 164.631C156.571 164.966 157.453 165.244 158.124 165.456C158.134 165.487 158.145 165.518 158.155 165.549C158.455 166.457 158.762 167.766 158.776 169.326ZM65.485 148.524C65.4848 148.524 65.484 148.522 65.4825 148.52L65.4828 148.52L65.484 148.523L65.485 148.524Z" stroke="#FFB46F" stroke-width="7" stroke-linejoin="round"/>
</svg>
