<svg width="39" height="37" viewBox="0 0 39 37" fill="none" xmlns="http://www.w3.org/2000/svg">
<g clip-path="url(#clip0)">
<path d="M26.0463 33.9166V27.9504C26.107 27.2152 26.0027 26.4762 25.7403 25.7825C25.4778 25.0887 25.0633 24.4561 24.5242 23.9266C29.6086 23.387 34.9519 21.5524 34.9519 13.1349C34.9515 10.9825 34.0819 8.91263 32.5231 7.35369C33.2613 5.47056 33.2091 3.38907 32.3774 1.54161C32.3774 1.54161 30.4667 1.00203 26.0463 3.82328C22.3351 2.86563 18.423 2.86563 14.7118 3.82328C10.2914 1.00203 8.38068 1.54161 8.38068 1.54161C7.54902 3.38907 7.49683 5.47056 8.23495 7.35369C6.66453 8.92419 5.79403 11.0128 5.80614 13.1812C5.80614 21.537 11.1495 23.3716 16.2339 23.9729C15.7011 24.497 15.2903 25.122 15.028 25.8073C14.7658 26.4926 14.6581 27.2228 14.7118 27.9504V33.9166M14.7118 29.2916C6.61574 31.6041 6.61574 25.4374 3.37732 24.6666L14.7118 29.2916Z" stroke="#161616" stroke-width="3.17096" stroke-linecap="round" stroke-linejoin="round"/>
</g>
<defs>
<clipPath id="clip0">
<rect width="38.8611" height="37" fill="white" transform="translate(0.138916)"/>
</clipPath>
</defs>
</svg>
