<svg width="40" height="37" viewBox="0 0 40 37" fill="none" xmlns="http://www.w3.org/2000/svg">
<path d="M26.2625 12.2604C28.8239 12.2604 31.2804 13.2292 33.0916 14.9536C34.9028 16.6781 35.9203 19.0169 35.9203 21.4557V32.1835H29.4818V21.4557C29.4818 20.6427 29.1426 19.8631 28.5389 19.2883C27.9351 18.7135 27.1163 18.3906 26.2625 18.3906C25.4087 18.3906 24.5899 18.7135 23.9862 19.2883C23.3824 19.8631 23.0433 20.6427 23.0433 21.4557V32.1835H16.6047V21.4557C16.6047 19.0169 17.6222 16.6781 19.4334 14.9536C21.2446 13.2292 23.7011 12.2604 26.2625 12.2604V12.2604Z" stroke="#161616" stroke-width="2.66725" stroke-linecap="round" stroke-linejoin="round"/>
<path d="M10.1662 13.793H3.72766V32.1835H10.1662V13.793Z" stroke="#161616" stroke-width="2.66725" stroke-linecap="round" stroke-linejoin="round"/>
<path d="M6.94692 9.19531C8.72487 9.19531 10.1662 7.82302 10.1662 6.13022C10.1662 4.43741 8.72487 3.06512 6.94692 3.06512C5.16897 3.06512 3.72766 4.43741 3.72766 6.13022C3.72766 7.82302 5.16897 9.19531 6.94692 9.19531Z" stroke="#161616" stroke-width="2.66725" stroke-linecap="round" stroke-linejoin="round"/>
</svg>
