<svg width="471" height="365" viewBox="0 0 471 365" fill="none" xmlns="http://www.w3.org/2000/svg">
<path d="M436.322 153.981C309.82 -95.8159 117.824 14.0857 37.6384 100.261C-70.0229 219.787 82.4973 307.865 172.215 336.964C312.96 380.051 562.824 403.778 436.322 153.981Z" fill="#699CFF" fill-opacity="0.2"/>
<path d="M48.1897 297.119L70.421 283.915C71.0587 283.537 71.7865 283.337 72.5281 283.337H396.439C397.164 283.337 397.876 283.528 398.503 283.89L421.361 297.094C425.016 299.205 423.518 304.793 419.297 304.793H50.2968C46.1022 304.793 44.5832 299.261 48.1897 297.119Z" fill="#343434"/>
<rect x="70.755" y="72.0734" width="325.973" height="210.438" rx="4.12624" fill="#343434"/>
<rect x="82.3085" y="83.6267" width="302.866" height="188.982" fill="url(#paint0_linear)"/>
<rect x="93.8618" y="94.355" width="121.311" height="148.545" rx="4.12624" fill="#302833"/>
<rect x="103.358" y="121.869" width="44.7147" height="4.06497" rx="2.03249" fill="#F3BB88"/>
<rect x="103.358" y="129.999" width="64.0234" height="4.06497" rx="2.03249" fill="#8E9DFD"/>
<rect x="103.358" y="146.259" width="41.666" height="4.06497" rx="2.03249" fill="#8EFCEF"/>
<rect x="103.358" y="161.564" width="15.2437" height="4.06497" rx="2.03249" fill="#F388C1"/>
<rect x="122.666" y="161.564" width="31.5036" height="4.06497" rx="2.03249" fill="#F3BB88"/>
<rect x="103.358" y="169.694" width="41.666" height="4.06497" rx="2.03249" fill="#699CFF"/>
<rect x="103.358" y="177.824" width="64.0234" height="4.06497" rx="2.03249" fill="#F388C1"/>
<rect x="103.358" y="202.466" width="64.0234" height="4.06497" rx="2.03249" fill="#8EFCEF"/>
<rect x="103.358" y="210.596" width="41.666" height="4.06497" rx="2.03249" fill="#8E9DFD"/>
<rect x="103.358" y="218.726" width="16.2599" height="4.06497" rx="2.03249" fill="#F388C1"/>
<rect x="121.65" y="218.726" width="26.4223" height="4.06497" rx="2.03249" fill="#F3BB88"/>
<rect x="103.358" y="185.954" width="9.14619" height="4.06497" rx="2.03249" fill="#8EFCEF"/>
<rect x="116.569" y="185.954" width="18.2924" height="4.06497" rx="2.03249" fill="#8E9DFD"/>
<rect x="138.926" y="185.954" width="18.2924" height="4.06497" rx="2.03249" fill="#699CFF"/>
<rect x="148.072" y="169.694" width="22.3574" height="4.06497" rx="2.03249" fill="#8EFCEF"/>
<rect x="103.358" y="138.129" width="31.5036" height="4.06497" rx="2.03249" fill="#699CFF"/>
<rect x="137.91" y="138.129" width="13.2112" height="4.06497" rx="2.03249" fill="#F388C1"/>
<rect x="151.121" y="121.869" width="16.2599" height="4.06497" rx="2.03249" fill="#699CFF"/>
<rect x="103.358" y="110.691" width="16.2599" height="4.06497" rx="2.03249" fill="#8E9DFD"/>
<rect x="122.666" y="110.691" width="18.2924" height="4.06497" rx="2.03249" fill="#8EFCEF"/>
<rect x="282.844" y="196.686" width="70.146" height="53.6411" rx="4.12624" fill="#302833"/>
<rect x="229.203" y="94.355" width="108.107" height="92.4277" rx="4.12624" fill="white"/>
<rect x="271.29" y="102.607" width="52.8158" height="34.6604" rx="1.6505" transform="rotate(90 271.29 102.607)" fill="#F388C1"/>
<rect x="303.475" y="132.316" width="22.2817" height="23.1069" rx="1.6505" fill="#699CFF"/>
<rect x="276.242" y="102.607" width="49.5149" height="24.7574" rx="1.6505" fill="#F3BB88"/>
<path d="M328.624 152.948L322.229 140.156L335.659 144.633L329.903 146.552L328.624 152.948Z" fill="#343434"/>
<path d="M289.446 217.317L296.198 223.506L289.446 229.696" stroke="#699CFF" stroke-width="2.25067" stroke-linejoin="round"/>
<path d="M300.699 229.696H313.078" stroke="#699CFF" stroke-width="2.25067" stroke-linejoin="round"/>
<path d="M286.97 202.462C286.97 201.095 288.078 199.987 289.446 199.987H347.213C348.58 199.987 349.689 201.095 349.689 202.462V206.589H286.97V202.462Z" fill="#699CFF"/>
<defs>
<linearGradient id="paint0_linear" x1="82.3085" y1="83.6267" x2="385.126" y2="267.607" gradientUnits="userSpaceOnUse">
<stop stop-color="#AAE5FF"/>
<stop offset="1" stop-color="#8E9DFD"/>
</linearGradient>
</defs>
</svg>
