<svg width="27" height="25" viewBox="0 0 27 25" fill="none" xmlns="http://www.w3.org/2000/svg">
<path d="M23.011 4.70413C22.4698 4.1886 21.8272 3.77964 21.12 3.50063C20.4127 3.22161 19.6547 3.078 18.8891 3.078C18.1236 3.078 17.3655 3.22161 16.6583 3.50063C15.951 3.77964 15.3084 4.1886 14.7672 4.70413L13.644 5.77353L12.5208 4.70413C11.4277 3.66328 9.94496 3.07854 8.39895 3.07854C6.85294 3.07854 5.37024 3.66328 4.27705 4.70413C3.18385 5.74497 2.5697 7.15666 2.5697 8.62863C2.5697 10.1006 3.18385 11.5123 4.27705 12.5531L5.40024 13.6225L13.644 21.4715L21.8878 13.6225L23.011 12.5531C23.5525 12.0379 23.982 11.426 24.2751 10.7527C24.5681 10.0793 24.7189 9.35753 24.7189 8.62863C24.7189 7.89974 24.5681 7.17798 24.2751 6.5046C23.982 5.83122 23.5525 5.21941 23.011 4.70413Z" fill="#161616"/>
</svg>
