<svg width="223" height="223" viewBox="0 0 223 223" fill="none" xmlns="http://www.w3.org/2000/svg">
<path opacity="0.3" d="M167.173 132.097H55.8275C36.857 132.097 21.4483 116.765 21.4483 97.7948C21.4483 78.9017 36.857 63.493 55.8275 63.493H167.173C186.143 63.493 201.552 78.8243 201.552 97.7948C201.552 116.765 186.143 132.097 167.173 132.097Z" fill="#8E9DFD"/>
<path d="M124.044 186.53H94.0781L128.302 173.522H89.8195L133.103 160.281" stroke="#8E9DFD" stroke-width="7" stroke-linecap="round" stroke-linejoin="round"/>
<path d="M138.059 156.023C139.84 145.415 149.131 134.265 153.312 129.619C155.326 127.451 157.107 125.128 158.578 122.573C163.456 114.21 166.243 104.454 166.011 94.0007C165.469 65.274 142.162 41.5802 113.436 40.4962C82.2313 39.3347 56.6017 64.1899 56.6017 95.0847C56.6017 104.918 59.2344 114.133 63.8028 122.108C65.4288 124.895 67.3646 127.451 69.5326 129.774C73.7913 134.497 82.8507 145.492 84.6316 155.945C84.9413 157.958 86.6448 159.429 88.7354 159.429H134.032C136.045 159.507 137.749 158.036 138.059 156.023Z" stroke="#8E9DFD" stroke-width="7" stroke-linecap="round" stroke-linejoin="round"/>
<path d="M114.984 159.662V112.119C114.984 110.261 113.436 108.712 111.577 108.712C109.719 108.712 108.171 110.261 108.171 112.119V159.662C108.171 161.52 109.719 163.069 111.577 163.069C113.436 163.069 114.984 161.52 114.984 159.662Z" fill="#8E9DFD"/>
<path d="M99.1886 97.5625C99.1886 90.826 104.686 85.3285 111.5 85.3285C118.314 85.3285 123.811 90.826 123.811 97.5625C123.811 104.299 118.314 109.797 111.5 109.797C104.686 109.797 99.1886 104.299 99.1886 97.5625Z" stroke="#8E9DFD" stroke-width="7" stroke-linecap="round" stroke-linejoin="round"/>
</svg>
