<svg width="108" height="174" viewBox="0 0 108 174" fill="none" xmlns="http://www.w3.org/2000/svg">
<path d="M13.5157 170.047C13.5164 170.048 13.5161 170.047 13.515 170.047L13.5157 170.047ZM12.3436 169.416C12.0994 169.27 11.8255 169.098 11.5296 168.9C10.2688 168.057 8.66701 166.774 7.25157 165.009C4.73222 161.866 2.58714 156.967 4.55668 149.53L20.4517 144.848L49.05 155.178C40.1592 158.695 31.827 161.934 25.2273 164.479C20.8843 166.155 17.2927 167.529 14.7874 168.485C13.7956 168.863 12.9741 169.176 12.3436 169.416Z" stroke="#FFB46F" stroke-width="7" stroke-linejoin="round"/>
<path d="M103.684 125.126C103.593 125.211 103.479 125.312 103.336 125.431C102.551 126.084 101.294 126.934 99.5413 127.965C96.2992 129.871 91.7515 132.168 86.3308 134.704C79.8757 132.785 72.2709 130.58 64.3309 128.323L95.8218 119.178C96.0331 119.241 96.278 119.319 96.5487 119.41C97.5411 119.747 98.8135 120.252 100.03 120.94C102.391 122.275 103.55 123.672 103.684 125.126ZM103.962 124.836C103.961 124.837 103.96 124.838 103.959 124.84C103.983 124.803 103.989 124.801 103.962 124.836Z" stroke="#FFB46F" stroke-width="7"/>
<path d="M49.4237 113.358C49.3752 113.355 49.3266 113.354 49.278 113.354C49.2765 113.354 49.275 113.354 49.2735 113.354H49.2707L49.241 113.354C49.205 113.353 49.1436 113.352 49.0582 113.349C48.8874 113.344 48.6215 113.333 48.2728 113.311C47.5745 113.266 46.5497 113.174 45.2972 112.988C42.7798 112.614 39.4084 111.87 35.9379 110.4C29.0751 107.493 21.94 101.844 19.9481 90.3998C18.0726 79.6244 19.9645 67.3709 22.4531 57.5924C22.8325 56.1013 23.2236 54.6762 23.6138 53.3322C25.1792 57.406 27.881 61.6945 32.6264 63.7192C33.8148 64.2263 35.1859 64.0374 36.1929 63.2278C37.199 62.419 37.6781 61.1221 37.4397 59.8537L37.4395 59.8525C37.4394 59.8517 37.4392 59.8509 37.4391 59.8501L37.4376 59.8422L37.4255 59.7739C37.4141 59.7087 37.3963 59.6044 37.3737 59.4631C37.3284 59.1804 37.2637 58.7501 37.1917 58.1886C37.0477 57.0648 36.8748 55.4203 36.7686 53.3865C36.5557 49.3085 36.6139 43.7222 37.6813 37.6589C39.3528 28.164 43.4443 17.6991 52.709 9.86292C52.0665 11.9473 51.4692 14.2485 51.0237 16.6719C49.2873 26.1175 49.6949 38.6227 60.4816 46.4754C61.94 47.5372 63.9665 47.3165 65.1622 45.9658L62.5416 43.6458C65.1622 45.9658 65.1631 45.9648 65.164 45.9637L65.166 45.9615L65.1705 45.9564L65.1817 45.9436L65.2125 45.9082C65.2367 45.8801 65.2683 45.8433 65.3065 45.7979C65.3829 45.7072 65.4863 45.582 65.6119 45.4243C65.8629 45.1092 66.2042 44.6622 66.5975 44.0982C67.3807 42.9749 68.3881 41.3615 69.2962 39.3802C69.7868 38.3098 70.2584 37.1091 70.6488 35.8031C73.0596 39.9605 75.8176 45.2968 78.176 51.3533C83.8342 65.8842 86.9303 83.8499 78.4781 99.7286L78.3881 99.8756C78.3222 99.9828 78.2284 100.134 78.1032 100.324C77.8524 100.707 77.4673 101.264 76.9373 101.935C75.8751 103.28 74.2376 105.075 71.9441 106.842C67.403 110.342 60.1786 113.828 49.4237 113.358Z" stroke="#FFB46F" stroke-width="7" stroke-linejoin="round"/>
<path d="M103.776 153.326C103.801 155.998 102.977 159.738 99.053 163.729L9.94206 131.401C9.93982 131.396 9.93759 131.391 9.93535 131.386C9.59536 130.622 9.17931 129.575 8.85482 128.416C8.32313 126.517 8.2024 124.916 8.46869 123.756C9.03163 123.772 9.78078 123.832 10.7333 123.95C13.4987 124.295 17.3934 125.057 22.1126 126.144C31.5191 128.309 43.8137 131.669 56.0671 135.202C68.3071 138.73 80.4528 142.415 89.542 145.218C94.0856 146.62 97.8633 147.8 100.504 148.631C101.571 148.966 102.453 149.244 103.124 149.456C103.134 149.487 103.145 149.518 103.155 149.549C103.455 150.457 103.762 151.766 103.776 153.326ZM10.485 132.524C10.4848 132.524 10.484 132.522 10.4825 132.52L10.4828 132.52L10.484 132.523L10.485 132.524Z" stroke="#FFB46F" stroke-width="7" stroke-linejoin="round"/>
</svg>
